<svg width="335px" height="337px" viewBox="0 0 335 337" version="1.1" xmlns="http://www.w3.org/2000/svg" xmlns:xlink="http://www.w3.org/1999/xlink" xmlns:sketch="http://www.bohemiancoding.com/sketch/ns">
    <defs>
        <filter x="-50%" y="-50%" width="200%" height="200%" filterUnits="objectBoundingBox" id="filter-1">
            <feOffset dx="0" dy="2" in="SourceAlpha" result="shadowOffsetOuter1"></feOffset>
            <feGaussianBlur stdDeviation="2" in="shadowOffsetOuter1" result="shadowBlurOuter1"></feGaussianBlur>
            <feColorMatrix values="0 0 0 0 0   0 0 0 0 0   0 0 0 0 0  0 0 0 0.35 0" in="shadowBlurOuter1" type="matrix" result="shadowMatrixOuter1"></feColorMatrix>
            <feMerge>
                <feMergeNode in="shadowMatrixOuter1"></feMergeNode>
                <feMergeNode in="SourceGraphic"></feMergeNode>
            </feMerge>
        </filter>
        <rect id="path-2" x="0" y="0" width="231" height="161"></rect>
    </defs>
    <g id="Page-1" stroke="none" stroke-width="1" fill="none" fill-rule="evenodd" sketch:type="MSPage">
        <g id="Retina-Macbook-Copy-5" sketch:type="MSArtboardGroup">
            <g id="Demo" sketch:type="MSLayerGroup" transform="translate(49.000000, 119.000000)">
                <mask id="mask-3" sketch:name="Mask" fill="white">
                    <use xlink:href="#path-2"></use>
                </mask>
                <g id="Image" mask="url(#mask-3)" sketch:type="MSShapeGroup">
                    <g transform="translate(10.000000, -137.000000)">
                        <path id="yubikey-identifier" d="M95.4914089,183.278351 L92.0996564,183.278351 L92.0996564,148.230241 C92.0996564,146.453608 90.6460481,145 88.8694158,145 L52.8522337,145 C51.0756014,145 49.6219931,146.453608 49.6219931,148.230241 L49.6219931,183.278351 L46.2302405,183.278351 C44.4536082,183.278351 43,184.731959 43,186.508591 L43,282.769759 C43,284.546392 44.4536082,286 46.2302405,286 L95.652921,286 C97.4295533,286 98.8831615,284.546392 98.8831615,282.769759 L98.8831615,186.508591 C98.7216495,184.731959 97.2680412,183.278351 95.4914089,183.278351 L95.4914089,183.278351 Z" fill="#000000" transform="translate(70.941581, 215.500000) rotate(-270.000000) translate(-70.941581, -215.500000) "></path>
                        <path d="M105,200 L120,200 L120,205 L105,205 L105,200 Z M105,209 L120,209 L120,214 L105,214 L105,209 Z M105,218 L120,218 L120,223 L105,223 L105,218 Z M105,227 L120,227 L120,232 L105,232 L105,227 Z" fill="#FFE00A"></path>
                        <ellipse id="Oval-10" fill="#FFE00A" cx="56.9700003" cy="215.97" rx="13.9700003" ry="13.9700003"></ellipse>
                        <rect id="Rectangle-17" fill="#D8D8D8" x="110" y="150" width="162" height="160" rx="10"></rect>
                        <rect id="Rectangle-17-Copy" fill="#AFAFAF" x="110" y="0" width="162" height="150" rx="10"></rect>
                        <rect id="Rectangle-24" fill="#000000" x="120" y="184" width="33" height="13" rx="3"></rect>
                        <rect id="Rectangle-24-Copy" fill="#000000" x="158" y="184" width="33" height="13" rx="3"></rect>
                        <rect id="Rectangle-24-Copy-2" fill="#000000" x="196" y="184" width="33" height="13" rx="3"></rect>
                        <rect id="Rectangle-27" fill="#000000" x="120" y="202" width="28" height="26" rx="3"></rect>
                        <rect id="Rectangle-27-Copy-4" fill="#000000" x="120" y="233" width="47" height="26" rx="3"></rect>
                        <rect id="Rectangle-27-Copy-7" fill="#000000" x="120" y="264" width="61" height="26" rx="3"></rect>
                        <rect id="Rectangle-27-Copy" fill="#000000" x="153" y="202" width="28" height="26" rx="3"></rect>
                        <rect id="Rectangle-27-Copy-5" fill="#000000" x="172" y="233" width="28" height="26" rx="3"></rect>
                        <rect id="Rectangle-27-Copy-8" fill="#000000" x="186" y="264" width="28" height="26" rx="3"></rect>
                        <rect id="Rectangle-27-Copy-9" fill="#000000" x="219" y="264" width="28" height="26" rx="3"></rect>
                        <rect id="Rectangle-27-Copy-6" fill="#000000" x="205" y="233" width="28" height="26" rx="3"></rect>
                        <rect id="Rectangle-27-Copy-2" fill="#000000" x="186" y="202" width="28" height="26" rx="3"></rect>
                        <rect id="Rectangle-27-Copy-3" fill="#000000" x="218.5" y="202" width="28" height="26" rx="3"></rect>
                        <rect id="Rectangle-23" fill="#CECECE" x="120" y="160" width="101" height="17"></rect>
                    </g>
                </g>
            </g>
        </g>
    </g>
</svg>